<svg width="25" height="25" viewBox="0 0 25 25" fill="none" xmlns="http://www.w3.org/2000/svg">
<path d="M3.40932 0.000319673C3.11856 0.000319673 2.82748 0.111077 2.6059 0.33323L0.33323 2.6059C-0.111077 3.05021 -0.111077 3.76958 0.33323 4.21275L8.62048 12.5L0.33323 20.7873C-0.111077 21.2316 -0.111077 21.9509 0.33323 22.3941L2.6059 24.6668C3.05021 25.1111 3.76958 25.1111 4.21275 24.6668L12.5 16.3795L20.7873 24.6668C21.2304 25.1111 21.9509 25.1111 22.3941 24.6668L24.6668 22.3941C25.1111 21.9498 25.1111 21.2304 24.6668 20.7873L16.3795 12.5L24.6668 4.21275C25.1111 3.76958 25.1111 3.04907 24.6668 2.6059L22.3941 0.33323C21.9498 -0.111077 21.2304 -0.111077 20.7873 0.33323L12.5 8.62048L4.21275 0.33323C3.99059 0.111077 3.70008 0.000319673 3.40932 0.000319673Z" fill="#CCCCCC"/>
</svg>
