<svg width="50" height="50" viewBox="0 0 50 50" fill="none" xmlns="http://www.w3.org/2000/svg">
<g clip-path="url(#clip0_19_498)">
<path d="M45.3125 25C45.3125 19.6128 43.1724 14.4462 39.3631 10.6369C35.5538 6.82756 30.3872 4.6875 25 4.6875C19.6128 4.6875 14.4462 6.82756 10.6369 10.6369C6.82756 14.4462 4.6875 19.6128 4.6875 25C4.6875 30.3872 6.82756 35.5538 10.6369 39.3631C14.4462 43.1724 19.6128 45.3125 25 45.3125C30.3872 45.3125 35.5538 43.1724 39.3631 39.3631C43.1724 35.5538 45.3125 30.3872 45.3125 25ZM0 25C0 18.3696 2.63392 12.0107 7.32233 7.32233C12.0107 2.63392 18.3696 0 25 0C31.6304 0 37.9893 2.63392 42.6777 7.32233C47.3661 12.0107 50 18.3696 50 25C50 31.6304 47.3661 37.9893 42.6777 42.6777C37.9893 47.3661 31.6304 50 25 50C18.3696 50 12.0107 47.3661 7.32233 42.6777C2.63392 37.9893 0 31.6304 0 25ZM18.3887 14.3652C19.1309 13.9551 20.0293 13.9648 20.7617 14.4141L34.8242 23.0078C35.5176 23.4375 35.9473 24.1895 35.9473 25.0098C35.9473 25.8301 35.5176 26.582 34.8242 27.0117L20.7617 35.6055C20.0391 36.0449 19.1309 36.0645 18.3887 35.6543C17.6465 35.2441 17.1875 34.4629 17.1875 33.6133V16.4062C17.1875 15.5566 17.6465 14.7754 18.3887 14.3652Z" fill="#010101"/>
</g>
<defs>
<clipPath id="clip0_19_498">
<rect width="50" height="50" fill="white"/>
</clipPath>
</defs>
</svg>
